<?xml version="1.0" standalone="no"?><!DOCTYPE svg PUBLIC "-//W3C//DTD SVG 1.1//EN" "http://www.w3.org/Graphics/SVG/1.1/DTD/svg11.dtd"><svg width="200" height="200" viewBox="0 0 200 200" version="1.1" xmlns="http://www.w3.org/2000/svg" xmlns:xlink="http://www.w3.org/1999/xlink"><defs><style type="text/css"><![CDATA[

]]></style></defs><g class="transform-group"><g transform="scale(0.1953125, 0.1953125)"><path d="M902.779659 795.440467c-6.179746-6.181793-14.304797-9.577123-22.950711-9.577123L129.341299 785.863345c-17.945721 0-32.540114 14.59644-32.540114 32.525788 0 17.962094 14.594393 32.555463 32.540114 32.555463l750.487649 0c17.931395 0 32.525788-14.594393 32.525788-32.555463C912.354735 809.745265 908.959406 801.61919 902.779659 795.440467M879.828948 461.055724 129.341299 461.055724c-17.945721 0-32.525788 14.594393-32.525788 32.541137 0 17.930371 14.580067 32.525788 32.525788 32.525788l750.487649 0c17.931395 0 32.525788-14.594393 32.525788-32.525788 0-8.647961-3.39533-16.800641-9.575076-22.980387C896.599913 464.436728 888.474862 461.055724 879.828948 461.055724M902.779659 154.426115c-6.179746-6.179746-14.304797-9.574053-22.950711-9.574053L129.341299 144.852062c-17.945721 0-32.540114 14.594393-32.540114 32.540114 0 17.946744 14.594393 32.525788 32.540114 32.525788l750.487649 0c17.931395 0 32.525788-14.579043 32.525788-32.525788C912.354735 168.745239 908.959406 160.606885 902.779659 154.426115" fill="#272636"></path></g></g></svg>